<svg id="check-24px" xmlns="http://www.w3.org/2000/svg" width="24" height="24" viewBox="0 0 24 24">
  <path id="Path_4578" data-name="Path 4578" d="M0,0H24V24H0Z" fill="rgba(0,0,0,0)" opacity="0"/>
  <path id="Path_4579" data-name="Path 4579" d="M9,16.17,4.83,12,3.41,13.41,9,19,21,7,19.59,5.59Z" transform="translate(0 -1)" fill="#f68a33"/>
  <path id="iconmonstr-coin-1" d="M12.333,15.123V16H11.5v-.832A5.768,5.768,0,0,1,9,14.563l.379-1.37a5.089,5.089,0,0,0,2.688.45c.957-.217,1.153-1.2.1-1.676-.776-.362-3.148-.671-3.148-2.7A2.525,2.525,0,0,1,11.5,6.889V6h.833v.848a7.7,7.7,0,0,1,2.035.35l-.3,1.373a5.333,5.333,0,0,0-2.036-.388c-1.241.073-1.35,1.147-.484,1.6,1.427.671,3.287,1.168,3.287,2.956,0,1.432-1.119,2.193-2.5,2.387Z" transform="translate(8.333 6)" fill="#f68a33"/>
</svg>
