<?xml version="1.0" encoding="iso-8859-1"?>
<!-- Generator: Adobe Illustrator 19.0.0, SVG Export Plug-In . SVG Version: 6.00 Build 0)  -->
<svg fill="#734030" version="1.1" id="Layer_1" xmlns="http://www.w3.org/2000/svg" xmlns:xlink="http://www.w3.org/1999/xlink" x="0px" y="0px"
	 viewBox="0 0 512.001 512.001" style="enable-background:new 0 0 512.001 512.001;" xml:space="preserve">
<g>
	<g>
		<circle cx="161.393" cy="105.741" r="16.696"/>
	</g>
</g>
<g>
	<g>
		<circle cx="356.179" cy="105.741" r="16.696"/>
	</g>
</g>
<g>
	<g>
		<circle cx="256.004" cy="38.954" r="16.696"/>
	</g>
</g>
<g>
	<g>
		<path d="M266.99,109.868c-6.283-5.511-15.696-5.511-21.979,0c-3.022,2.641-74.078,65.713-74.078,146.133
			s71.056,143.491,74.078,146.133c3.141,2.756,7.066,4.131,10.989,4.131s7.848-1.375,10.989-4.131
			c3.022-2.641,74.078-65.713,74.078-146.133S270.011,112.51,266.99,109.868z"/>
	</g>
</g>
<g>
	<g>
		<path d="M466.187,199.603c-0.489-8.495-7.283-15.267-15.772-15.729c-2.314-0.098-42.609-1.937-86.52,11.643
			c6.377,18.6,10.563,38.864,10.563,60.484c0,63.348-34.941,115.647-60.36,145.357c31.604-5.956,69.817-18.946,98.731-47.193
			C471.003,297.354,466.405,203.57,466.187,199.603z"/>
	</g>
</g>
<g>
	<g>
		<path d="M50.173,346.282c-26.719,14.308-43.764,30.045-44.883,31.09c-7.053,6.587-7.053,17.802,0,24.392
			c2.381,2.228,59.207,54.588,131.056,54.588c28.955,0,55.379-8.535,76.875-18.834C146.461,429.771,86.645,402.72,50.173,346.282z"
			/>
	</g>
</g>
<g>
	<g>
		<path d="M506.71,377.372c-1.119-1.044-18.164-16.779-44.881-31.088c-36.475,56.45-96.296,83.488-163.049,91.234
			c21.494,10.298,47.918,18.833,76.873,18.833c71.849,0,128.675-52.359,131.056-54.588
			C513.764,395.176,513.764,383.96,506.71,377.372z"/>
	</g>
</g>
<g>
	<g>
		<path d="M256.019,451.981c-11.493,7.317-25.462,14.964-41.429,21.508c15.773,8.381,31.014,13.72,36.203,15.423
			c3.341,1.092,6.971,1.125,10.413,0c5.189-1.703,20.431-7.041,36.203-15.423C281.487,466.961,267.51,459.27,256.019,451.981z"/>
	</g>
</g>
<g>
	<g>
		<path d="M137.542,256.001c0-21.623,4.187-41.887,10.565-60.49c-43.908-13.585-84.202-11.749-86.523-11.636
			c-8.489,0.462-15.282,7.234-15.772,15.729c-0.217,3.967-4.815,97.751,53.359,154.562c28.917,28.243,67.126,41.233,98.725,47.19
			C172.49,371.659,137.542,319.355,137.542,256.001z"/>
	</g>
</g>
<g>
</g>
<g>
</g>
<g>
</g>
<g>
</g>
<g>
</g>
<g>
</g>
<g>
</g>
<g>
</g>
<g>
</g>
<g>
</g>
<g>
</g>
<g>
</g>
<g>
</g>
<g>
</g>
<g>
</g>
</svg>
